<svg width="24" height="24" viewBox="0 0 24 24" fill="none" xmlns="http://www.w3.org/2000/svg">
<g clip-path="url(#clip0_1070_4)">
<path d="M16.9991 13.1C17.8238 13.1 18.5495 12.649 18.9233 11.967L22.8599 4.828C23.2667 4.102 22.7389 3.2 21.9032 3.2H5.62928L4.59566 1H1V3.2H3.19918L7.15771 11.549L5.67326 14.233C4.87056 15.707 5.92617 17.5 7.59755 17.5H20.7926V15.3H7.59755L8.8071 13.1H16.9991ZM6.67389 5.4H20.0339L16.9991 10.9H9.27992L6.67389 5.4ZM7.59755 18.6C6.388 18.6 5.40936 19.59 5.40936 20.8C5.40936 22.01 6.388 23 7.59755 23C8.8071 23 9.79673 22.01 9.79673 20.8C9.79673 19.59 8.8071 18.6 7.59755 18.6ZM18.5935 18.6C17.3839 18.6 16.4053 19.59 16.4053 20.8C16.4053 22.01 17.3839 23 18.5935 23C19.803 23 20.7926 22.01 20.7926 20.8C20.7926 19.59 19.803 18.6 18.5935 18.6Z" fill="#F472B6"/>
</g>
<defs>
<clipPath id="clip0_1070_4">
<rect width="24" height="24" fill="white"/>
</clipPath>
</defs>
</svg>
